<svg width="41" height="41" viewBox="0 0 41 41" fill="none" xmlns="http://www.w3.org/2000/svg">
<path d="M34.5938 23.0625C34.9408 23.0625 35.241 23.1893 35.4946 23.4429C35.7482 23.6965 35.875 23.9967 35.875 24.3438C35.875 24.6908 35.7482 24.991 35.4946 25.2446C35.241 25.4982 34.9408 25.625 34.5938 25.625C34.2467 25.625 33.9465 25.4982 33.6929 25.2446C33.4393 24.991 33.3125 24.6908 33.3125 24.3438C33.3125 23.9967 33.4393 23.6965 33.6929 23.4429C33.9465 23.1893 34.2467 23.0625 34.5938 23.0625ZM22.522 22.6821C21.4676 21.9614 20.3332 21.4209 19.1187 21.0605C17.9041 20.7002 16.6562 20.5133 15.375 20.5C14.2005 20.5 13.0661 20.6535 11.9717 20.9604C10.8773 21.2674 9.85628 21.6945 8.90869 22.2417C7.9611 22.7889 7.10026 23.4562 6.32617 24.2437C5.55208 25.0311 4.88477 25.8986 4.32422 26.8462C3.76367 27.7938 3.32992 28.8148 3.02295 29.9092C2.71598 31.0036 2.5625 32.138 2.5625 33.3125H0C0 31.751 0.233561 30.2228 0.700684 28.728C1.16781 27.2332 1.8418 25.8519 2.72266 24.584C3.60352 23.3161 4.6512 22.1883 5.86572 21.2007C7.08024 20.2131 8.4349 19.459 9.92969 18.9385C9.18229 18.458 8.51497 17.9041 7.92773 17.2769C7.34049 16.6496 6.83333 15.9622 6.40625 15.2148C5.97917 14.4674 5.66553 13.68 5.46533 12.8525C5.26514 12.0251 5.15169 11.1576 5.125 10.25C5.125 8.83529 5.39193 7.50732 5.92578 6.26611C6.45964 5.0249 7.18701 3.93717 8.10791 3.00293C9.02881 2.06868 10.1165 1.33464 11.3711 0.800781C12.6257 0.266927 13.9603 0 15.375 0C16.7897 0 18.1177 0.266927 19.3589 0.800781C20.6001 1.33464 21.6878 2.06201 22.6221 2.98291C23.5563 3.90381 24.2904 4.99154 24.8242 6.24609C25.3581 7.50065 25.625 8.83529 25.625 10.25C25.625 11.1442 25.5182 12.005 25.3047 12.8325C25.0911 13.66 24.7708 14.4541 24.3438 15.2148C23.9167 15.9756 23.4162 16.6629 22.8423 17.2769C22.2684 17.8908 21.5944 18.4447 20.8203 18.9385C21.9014 19.3255 22.9424 19.8594 23.9434 20.54L22.522 22.6821ZM7.6875 10.25C7.6875 11.3177 7.8877 12.312 8.28809 13.2329C8.68848 14.1538 9.23568 14.9679 9.92969 15.6753C10.6237 16.3827 11.4378 16.9365 12.3721 17.3369C13.3063 17.7373 14.3073 17.9375 15.375 17.9375C16.4294 17.9375 17.4237 17.7373 18.3579 17.3369C19.2922 16.9365 20.1063 16.3893 20.8003 15.6953C21.4943 15.0013 22.0482 14.1872 22.4619 13.2529C22.8757 12.3187 23.0758 11.3177 23.0625 10.25C23.0625 9.19564 22.8623 8.20133 22.4619 7.26709C22.0615 6.33285 21.5143 5.51872 20.8203 4.82471C20.1263 4.1307 19.3055 3.57682 18.3579 3.16309C17.4103 2.74935 16.416 2.54915 15.375 2.5625C14.3073 2.5625 13.313 2.7627 12.3921 3.16309C11.4712 3.56348 10.6571 4.11068 9.94971 4.80469C9.24235 5.4987 8.68848 6.3195 8.28809 7.26709C7.8877 8.21468 7.6875 9.20898 7.6875 10.25ZM33.3125 17.9375C34.3669 17.9375 35.3612 18.1377 36.2954 18.5381C37.2297 18.9385 38.0438 19.4857 38.7378 20.1797C39.4318 20.8737 39.9857 21.6945 40.3994 22.6421C40.8132 23.5897 41.0133 24.584 41 25.625C41 26.6927 40.7998 27.687 40.3994 28.6079C39.999 29.5288 39.4518 30.3429 38.7578 31.0503C38.0638 31.7577 37.243 32.3115 36.2954 32.7119C35.3478 33.1123 34.3535 33.3125 33.3125 33.3125C32.445 33.3125 31.5908 33.159 30.75 32.8521V35.875H28.1875V38.4375H25.625V41H17.9375V35.3545L25.8452 27.4268C25.6984 26.8128 25.625 26.2122 25.625 25.625C25.625 24.5706 25.8252 23.5763 26.2256 22.6421C26.626 21.7078 27.1732 20.8937 27.8672 20.1997C28.5612 19.5057 29.3753 18.9518 30.3096 18.5381C31.2438 18.1243 32.2448 17.9242 33.3125 17.9375ZM33.3125 30.75C34.0199 30.75 34.6805 30.6165 35.2944 30.3496C35.9084 30.0827 36.4556 29.7157 36.936 29.2485C37.4165 28.7814 37.7835 28.2409 38.0371 27.627C38.2907 27.013 38.4242 26.3457 38.4375 25.625C38.4375 24.9176 38.304 24.257 38.0371 23.6431C37.7702 23.0291 37.4032 22.4819 36.936 22.0015C36.4689 21.521 35.9284 21.154 35.3145 20.9004C34.7005 20.6468 34.0332 20.5133 33.3125 20.5C32.6051 20.5 31.9445 20.6335 31.3306 20.9004C30.7166 21.1673 30.1694 21.5343 29.689 22.0015C29.2085 22.4686 28.8415 23.0091 28.5879 23.623C28.3343 24.237 28.2008 24.9043 28.1875 25.625C28.1875 26.0921 28.2476 26.5192 28.3677 26.9062C28.4878 27.2933 28.6279 27.7004 28.7881 28.1274L20.5 36.3955V38.4375H23.0625V35.875H25.625V33.3125H28.1875V31.4907L30.0493 29.6489C30.5832 29.9559 31.097 30.2161 31.5908 30.4297C32.0846 30.6432 32.6585 30.75 33.3125 30.75Z" fill="#95291A"/>
</svg>
