<svg width="29" height="35" viewBox="0 0 29 35" fill="none" xmlns="http://www.w3.org/2000/svg">
<path d="M14.5 19.2084C13.9799 19.2023 13.4705 19.3557 13.0402 19.6479C12.6099 19.9401 12.2795 20.3572 12.0934 20.8429C11.9073 21.3286 11.8744 21.8597 11.9993 22.3646C12.1241 22.8695 12.4007 23.3241 12.7917 23.6671V26.0417C12.7917 26.4948 12.9717 26.9293 13.2921 27.2497C13.6124 27.57 14.047 27.75 14.5 27.75C14.9531 27.75 15.3876 27.57 15.708 27.2497C16.0284 26.9293 16.2084 26.4948 16.2084 26.0417V23.6671C16.5994 23.3241 16.8759 22.8695 17.0008 22.3646C17.1256 21.8597 17.0928 21.3286 16.9067 20.8429C16.7206 20.3572 16.3902 19.9401 15.9599 19.6479C15.5296 19.3557 15.0201 19.2023 14.5 19.2084ZM23.0417 12.375V8.95835C23.0417 6.69296 22.1418 4.52036 20.5399 2.91848C18.938 1.31661 16.7654 0.416687 14.5 0.416687C12.2346 0.416687 10.062 1.31661 8.46017 2.91848C6.8583 4.52036 5.95837 6.69296 5.95837 8.95835V12.375C4.59914 12.375 3.29558 12.915 2.33445 13.8761C1.37333 14.8372 0.833374 16.1408 0.833374 17.5V29.4584C0.833374 30.8176 1.37333 32.1212 2.33445 33.0823C3.29558 34.0434 4.59914 34.5834 5.95837 34.5834H23.0417C24.4009 34.5834 25.7045 34.0434 26.6656 33.0823C27.6268 32.1212 28.1667 30.8176 28.1667 29.4584V17.5C28.1667 16.1408 27.6268 14.8372 26.6656 13.8761C25.7045 12.915 24.4009 12.375 23.0417 12.375ZM9.37504 8.95835C9.37504 7.59912 9.91499 6.29556 10.8761 5.33443C11.8372 4.37331 13.1408 3.83335 14.5 3.83335C15.8593 3.83335 17.1628 4.37331 18.124 5.33443C19.0851 6.29556 19.625 7.59912 19.625 8.95835V12.375H9.37504V8.95835ZM24.75 29.4584C24.75 29.9114 24.5701 30.346 24.2497 30.6663C23.9293 30.9867 23.4948 31.1667 23.0417 31.1667H5.95837C5.5053 31.1667 5.07078 30.9867 4.7504 30.6663C4.43003 30.346 4.25004 29.9114 4.25004 29.4584V17.5C4.25004 17.0469 4.43003 16.6124 4.7504 16.292C5.07078 15.9717 5.5053 15.7917 5.95837 15.7917H23.0417C23.4948 15.7917 23.9293 15.9717 24.2497 16.292C24.5701 16.6124 24.75 17.0469 24.75 17.5V29.4584Z" fill="#95291A"/>
</svg>
